<svg width="320" height="80" xmlns="http://www.w3.org/2000/svg"><path style="fill:#000;stroke-width:.32" d="M43.612 67.214c-.795-.36-1.714-1.14-2.24-1.897-.633-.912-1.057-1.236-1.46-1.117-.76.225-2.357-1.502-2.82-3.047-.204-.68-.65-1.318-1.044-1.49-.925-.407-1.777-2.243-2.186-4.711-.258-1.557-.493-2.103-1.004-2.332-.367-.165-.788-.774-.935-1.352-.147-.58-.56-1.344-.915-1.7-.824-.824-.646-1.354.538-1.61 1.332-.288.262-.393-3.066-.3-3.305.093-4.48-.277-4.48-1.41 0-.677.15-.808.92-.808.986 0 1.828.716 1.489 1.266-.266.43.652.426 2.695-.013 1.385-.297 1.616-.454 1.616-1.099 0-.414.133-1.103.296-1.53.236-.62.133-1.009-.504-1.904-1.577-2.216-5.81-3.751-14.352-5.205-7.7-1.31-8.128-1.417-8.505-2.122-.475-.887.722-2.594 2.31-3.294l1.198-.529 4.418 1.75c11.382 4.508 15.152 5.06 21.699 3.175 1.936-.557 5.165-1.46 7.175-2.006 2.01-.547 4.605-1.411 5.766-1.92 2.554-1.121 4.867-1.473 6.606-1.005 1.891.51 4.148 2.128 5.163 3.704l.89 1.38 1.68-.169c2.05-.206 2.159.2.294 1.107-1.22.592-1.471.907-2.094 2.615-.665 1.825-3.938 6.439-4.567 6.439-.152 0-.192 1.404-.09 3.12.339 5.653-1.53 12.36-4.19 15.04-2.09 2.106-3.385 1.69-3.594-1.152-.277-3.766-.498-5.048-.96-5.568-.274-.307-.527-1.027-.562-1.6-.036-.572-.373-1.544-.75-2.16-.376-.616-.685-1.324-.686-1.573-.002-1.024-.447.103-.839 2.13-.526 2.716-.556 7.427-.068 10.386.345 2.087.328 2.3-.22 2.702-.769.561-1.002.544-2.622-.191zm78.021-16.2c-.95-.256-2.394-.828-3.21-1.272-1.386-.755-1.556-.778-2.593-.35-1.981.815-3.763.965-4.64.39-.95-.622-1.022-1.345-.162-1.618.733-.233 2.037.368 1.762.812-.282.456.681.366 2.004-.186l1.173-.49-.959-.96-.96-.959-2.064.633c-3 .919-5.042 1.11-6.544.61-1.038-.346-1.28-.578-1.28-1.225 0-.57.194-.827.68-.896.783-.112 1.829.782 1.513 1.293-.303.49 2.976.113 4.483-.517 1.108-.463 1.168-.554.81-1.23-.213-.4-.653-.917-.977-1.147-.331-.235-.589-.809-.589-1.31 0-.491-.256-1.124-.569-1.407-1.78-1.611-7.227-3.184-15.858-4.58-4.75-.767-5.444-.957-5.867-1.603-.446-.68-.416-.818.409-1.899 1.546-2.028 2.87-2.2 6.005-.778 2.973 1.348 11.064 4.004 14.08 4.621 2.42.496 2.626.49 5.28-.156 9.724-2.364 13.367-3.387 16.2-4.546 4.01-1.64 6.162-1.758 8.68-.472 1.521.778 4.28 3.447 4.28 4.143 0 .169.783.255 1.76.195.969-.06 1.76-.035 1.76.057 0 .091-.639.515-1.42.942-1.21.661-1.518 1.046-2.088 2.61-1.82 4.988-7.525 9.85-13.28 11.315-2.358.6-5.54.592-7.819-.02zm78.963-.257c-1.168-.412-2.436-.969-2.817-1.236-.627-.44-.848-.428-2.28.116-.872.332-2.15.603-2.84.603-2.06 0-3.085-1.638-1.167-1.864.566-.067 1.03.099 1.296.462.368.503.563.522 1.733.171.726-.217 1.319-.526 1.319-.686 0-.16-.485-.66-1.079-1.113l-1.078-.823-1.562.67c-1.966.845-5.377 1.159-6.949.64-.92-.304-1.172-.553-1.172-1.162 0-.64.16-.775.92-.775.959 0 1.81.675 1.397 1.108-.495.519 3.67-.061 5.131-.715l1.528-.684-1.785-2.225c-1.364-1.7-2.216-2.43-3.608-3.091-2.36-1.121-6.645-2.2-12.673-3.193-5.892-.97-7.105-1.294-7.365-1.97-.439-1.144 2.078-3.63 3.674-3.63.309 0 1.547.444 2.751.988 2.288 1.031 11.636 4.224 13.518 4.617.976.204 1.063.165.845-.369-.651-1.6-.806-2.652-.506-3.441.174-.46.455-.835.623-.835.192 0 .195-.384.008-1.038-.334-1.165-.401-4.72-.104-5.496.107-.278.375-.506.596-.506.258 0 .464-.69.576-1.931.197-2.172.899-3.509 1.841-3.509.425 0 .633-.216.633-.656 0-1.795 1.98-3.824 3.73-3.824 1.278 0 1.401.236 2.119 4.049.545 2.895 2.805 8.111 3.515 8.111.303 0 .404-.28.317-.88-.158-1.087.401-2.64.951-2.64.276 0 .428-.594.47-1.84.196-5.833.846-7.443 2.594-6.426 1.052.61 3.488 4.205 4.638 6.842.73 1.673 1.744 5.151 2.282 7.824.154.764.268.801 2.542.827 2.132.025 2.557.14 4.053 1.1.92.59 2.094 1.658 2.61 2.373.871 1.205 1.073 1.312 2.76 1.46l1.82.16-1.472.865c-1.172.689-1.586 1.176-2.04 2.4-1.24 3.348-4.305 6.907-7.904 9.178-4.38 2.764-10.001 3.543-14.389 1.994zm81.037.277c-.95-.267-2.394-.848-3.21-1.292-1.386-.755-1.556-.778-2.593-.35-1.981.815-3.763.965-4.64.39-.95-.622-1.022-1.345-.162-1.618.733-.233 2.037.368 1.762.812-.281.455.68.367 1.996-.183l1.166-.487-1.035-1.068-1.035-1.068-1.821.733c-3.689 1.484-7.901 1.216-7.901-.503 0-.572.194-.828.68-.897.778-.111 1.83.78 1.517 1.286-.36.583 3.106.096 4.91-.69l1.666-.726-1.826-2.262c-1.485-1.839-2.202-2.432-3.827-3.17-2.593-1.176-6.949-2.242-13.52-3.306-3.911-.634-5.442-1.012-5.905-1.46-.619-.597-.616-.616.333-1.969 1.162-1.657 2.768-2.222 4.394-1.547 6.016 2.499 13.165 4.901 15.876 5.335 1.084.173 1.19.112 1.715-.99.65-1.362 1.163-1.335 1.805.095.252.562.614 1.021.806 1.021.192 0 1.426-.3 2.742-.667 1.317-.367 4.51-1.225 7.098-1.906 2.587-.681 5.97-1.774 7.52-2.428 3.447-1.455 5.492-1.571 8.025-.456 1.583.697 4.551 3.463 4.551 4.241 0 .182.745.269 1.76.206.969-.06 1.76-.022 1.76.086 0 .107-.651.54-1.448.96-1.117.59-1.518 1.02-1.758 1.884-1.217 4.391-6.464 9.483-11.804 11.455-2.701.997-7.086 1.244-9.597.539z"/></svg>